<?xml version="1.0" encoding="UTF-8"?>
<!DOCTYPE svg PUBLIC "-//W3C//DTD SVG 1.1//EN" "http://www.w3.org/Graphics/SVG/1.1/DTD/svg11.dtd">
<!-- Creator: CorelDRAW 2020 (64-Bit) -->
<svg xmlns="http://www.w3.org/2000/svg" xml:space="preserve" width="682.12mm" height="670.409mm" version="1.1" style="shape-rendering:geometricPrecision; text-rendering:geometricPrecision; image-rendering:optimizeQuality; fill-rule:evenodd; clip-rule:evenodd"
viewBox="0 0 23983.45 23571.7"
 xmlns:xlink="http://www.w3.org/1999/xlink"
 xmlns:xodm="http://www.corel.com/coreldraw/odm/2003">
 <defs>
  <style type="text/css">
   <![CDATA[
    .fil0 {fill:#BF0000}
    .fil1 {fill:#CCCCCC}
    .fil2 {fill:#E9E9E9}
   ]]>
  </style>
 </defs>
 <g id="Capa_x0020_1">
  <metadata id="CorelCorpID_0Corel-Layer"/>
  <g id="_1664765502656">
   <path class="fil0" d="M10497.84 891.83c-2535.16,294.17 -3966.15,582.27 -5741.68,1787.87 -3698.63,2511.46 -3901.58,6996.64 -3731.9,11268.78 58.5,1471.68 206.26,9080.56 2716.91,8464.93 2271.66,-557.05 2003.25,-7477.4 2127.66,-9161.51 238.81,-3232.99 1234.93,-6067.51 4348.61,-6861.14 1072.15,-273.25 2261.73,-315.37 3383.88,-93.29 4941.25,977.79 4732.32,6509.18 4870.5,10151.19 240.6,6338.71 2580.51,7509.33 3643.26,4570.96 332.01,-917.77 542.56,-2093.76 653.56,-3132.19 461.26,-4312.29 715,-9764.98 -1390.2,-13002.35 -924.93,-1422.5 -2251.63,-2528.27 -4226.07,-3269.12 -1741.45,-653.56 -4675.7,-953.82 -6654.52,-724.13z"/>
   <path class="fil1" d="M10497.84 891.83c1978.82,-229.69 4913.08,70.57 6654.52,724.13 1974.44,740.85 3301.15,1846.63 4226.07,3269.12 2105.21,3237.37 1851.46,8690.06 1390.2,13002.35 -111,1038.43 -321.55,2214.42 -653.56,3132.19 -1062.76,2938.37 -3402.66,1767.74 -3643.26,-4570.96 -138.19,-3642.01 70.75,-9173.41 -4870.5,-10151.19 -1122.14,-222.09 -2311.73,-179.96 -3383.88,93.29 -3113.67,793.62 -4109.8,3628.15 -4348.61,6861.14 -124.41,1684.11 144,8604.46 -2127.66,9161.51 -2510.65,615.63 -2658.41,-6993.25 -2716.91,-8464.93 -169.67,-4272.14 33.27,-8757.32 3731.9,-11268.78 1775.52,-1205.6 3206.52,-1493.69 5741.68,-1787.87zm-9993.68 12905.22c0,937.09 48.65,2133.56 156.35,2991.5 64.75,516.08 169.58,893.53 213.05,1351.3 121.73,1281.8 343.46,2635.61 935.57,3733.87 328.08,608.39 913.21,1315.25 1996.09,1080.38 1679.91,-364.39 2091.08,-2042.51 2323.09,-3925.99 33.18,-269.31 116.81,-357.68 166.36,-640.59 326.47,-1863.54 -39.26,-5902.23 686.47,-7734.1 737.64,-1861.74 640.95,-1766.94 1818.64,-2869.85l997.37 -513.76c1376.07,-672.88 4428.92,-357.5 5252.96,177.63 459.38,298.38 1253.8,1119.37 1526.34,1544.94 265.11,414.03 799.88,1671.41 919.29,2165.41 363.58,1504.06 202.85,2044.93 336.84,2727.28 215.82,1099.61 -366.18,9636 3193.99,9188.79 241.59,-30.32 902.48,-393.9 1064.01,-563.22 758.65,-795.5 931.01,-2514.05 1155.42,-3486.02 498.82,-2159.95 526.46,-7272.39 345.07,-9550.14 -41.59,-521.63 -81.04,-215.56 -171.28,-551.23l-231.21 -1301.84c-135.32,-583.35 -608.21,-1780.35 -849.61,-2254.13 -360.1,-706.68 -726.28,-1204.79 -1232.88,-1799.58 -483.97,-568.32 -1022.95,-981.45 -1691.45,-1412.03 -1078.68,-694.7 -2026.77,-1178.14 -3269.12,-1400.13l-1178.94 -296.5c-3325.29,-249.37 -5171.66,-445.34 -8295.88,706.69 -758.92,279.86 -743.8,201.51 -1431.8,624.49 -2077.48,1277.06 -1113.56,664.56 -2331.5,1842.43 -430.49,416.36 -791.75,1168.84 -1101.75,1716.49 -1452.01,2564.94 -1301.48,5570.39 -1301.48,8447.94z"/>
   <path class="fil2" d="M504.15 13797.05c0,-2877.55 -150.53,-5882.99 1301.48,-8447.94 310.01,-547.65 671.27,-1300.13 1101.75,-1716.49 1217.94,-1177.87 254.01,-565.36 2331.5,-1842.43 687.99,-422.97 672.88,-344.62 1431.8,-624.49 3124.23,-1152.02 4970.59,-956.05 8295.88,-706.69l1178.94 296.5c1242.36,222 2190.45,705.44 3269.12,1400.13 668.49,430.58 1207.47,843.71 1691.45,1412.03 506.6,594.79 872.78,1092.9 1232.88,1799.58 241.41,473.78 714.29,1670.79 849.61,2254.13l231.21 1301.84c90.25,335.68 129.69,29.6 171.28,551.23 181.39,2277.75 153.75,7390.19 -345.07,9550.14 -224.41,971.97 -396.77,2690.52 -1155.42,3486.02 -161.53,169.32 -822.42,532.9 -1064.01,563.22 -3560.17,447.21 -2978.17,-8089.18 -3193.99,-9188.79 -133.99,-682.36 26.74,-1223.22 -336.84,-2727.28 -119.41,-493.99 -654.18,-1751.38 -919.29,-2165.41 -272.53,-425.57 -1066.96,-1246.56 -1526.34,-1544.94 -824.03,-535.13 -3876.89,-850.51 -5252.96,-177.63l-997.37 513.76c-1177.69,1102.92 -1081,1008.11 -1818.64,2869.85 -725.73,1831.87 -360,5870.56 -686.47,7734.1 -49.55,282.91 -133.18,371.27 -166.36,640.59 -232.01,1883.48 -643.18,3561.6 -2323.09,3925.99 -1082.88,234.88 -1668.01,-471.99 -1996.09,-1080.38 -592.11,-1098.26 -813.84,-2452.07 -935.57,-3733.87 -43.47,-457.77 -148.3,-835.22 -213.05,-1351.3 -107.69,-857.93 -156.35,-2054.41 -156.35,-2991.5zm19433.45 -11770.64c-443.55,-255.36 -965.8,-453.83 -1346.74,-786.38 -278.17,-242.93 -157.24,-84.7 -575.47,-172.18l-1089.41 -433.53c-434.87,-180.41 -1234.13,-296.06 -1709.25,-404.73 -389.08,-89.09 -877.88,-102.86 -1286,-160.99 -851.49,-121.37 -1954.32,-43.56 -2900.71,-49.1 -1185.74,-6.98 -1578.75,160.99 -2574.69,296.06 -902.66,122.36 -1717.3,510.81 -2552.24,717.33 -1136.46,281.03 -537.91,291.05 -1082.07,573.06 -241.94,125.4 -268.33,90.6 -599.35,81.75 -59.03,652.58 -898,902.56 -1325.81,1546.2 -213.5,321.28 -496.41,460.98 -686.02,753.37 -17.35,26.74 -56.53,105.45 -79.78,146.96l-484.96 732.44c-115.11,149.73 -201.6,289.79 -271.82,474.76 -104.74,276.11 -100.35,229.69 -215.38,469.57 -75.49,157.24 -187.29,417.25 -226.2,527.09 -223.78,631.37 -346.95,968.57 -411.79,1704.42l-313.5 1054.08c-666.97,1362.57 538.89,9940.73 52.5,10758.69 12.79,8.59 191.05,105.45 192.3,106.26 235.5,155.36 92.84,-17.8 206.26,209.57l400.61 1124.56c156.71,471.81 448.02,998.36 818.58,1350.76 631.65,600.7 1645.75,979.93 2534.35,582 323.24,-144.72 166.18,-108.4 375.66,-302.23l994.42 -1206.4c158.4,-307.23 205,-412.51 255.62,-799.52 274.95,63.95 99.01,63.41 361.89,151.42 20.21,-392.74 -52.59,-439.88 -63.95,-697.92 -13.15,-297.75 77.19,-350.79 116.27,-610 334.78,-2217.28 308.67,-4629.01 413.31,-6878.04 51.88,-1116.51 691.3,-3431.73 1552.81,-4276.7 259.47,-254.46 886.91,-802.21 1238.87,-958.55 1014.99,-450.88 1963,-506.43 3126.02,-390.06l635.58 125.13c876.18,291.05 530.93,-1.43 1575.62,548.1 546.22,287.29 1144.06,989.33 1417.84,1549.86 195.88,400.97 360.36,553.83 470.92,959 171.28,628.07 463.22,1637.33 580.03,2392.23 155,1002.21 -106.7,4680.08 473.69,6778.14 92.57,334.96 118.42,881.63 194.09,1280.19 113.14,595.15 511.52,1565.15 982.97,1929.81 251.33,194.36 552.75,449.54 848.81,571.36 381.21,156.88 791.21,212.79 1156.4,155.54 624.31,-97.76 663.75,100.09 1369.81,-782.62l116.99 -179.33c7.16,-15.83 14.76,-36.05 21.02,-52.77 40.7,-108.05 36.85,-170.57 82.38,-300.7 69.23,-198.12 188.01,-360.72 247.76,-517.07 73.43,-192.12 101.61,-345.16 155.72,-519.3 176.56,-567.51 370.74,-246.5 430.13,-968.93 33.27,-404.1 20.12,-360.45 144.18,-648.64 105.81,-245.7 92.13,-191.05 94.81,-552.66 14.76,-2001.37 202.5,-3661.87 201.42,-5685.06 -0.53,-986.73 5.73,-1967.56 -4.92,-2954.73 -11.98,-1102.92 -374.05,-3270.65 -914.01,-4234.93l-125.31 -253.48c-779.22,-1656.48 -440.42,-813.83 -1202.2,-1968.9 -209.38,-317.61 -410.99,-657.49 -658.38,-857.22 -286.75,-231.48 -130.94,-233.18 -339.62,-421.36l-800.06 -625.65z"/>
   <path class="fil0" d="M14618.9 15084.39c805.61,-4479.19 -4504.41,-4099.24 -5061.37,-1698.07 -980.29,4226.34 4562.02,4474 5061.37,1698.07z"/>
   <path class="fil1" d="M14618.9 15084.39c-499.36,2775.94 -6041.67,2528.27 -5061.37,-1698.07 556.96,-2401.18 5866.98,-2781.13 5061.37,1698.07zm575.74 75.76c391.49,-927.25 -42.4,-2811.27 -1130.29,-3561.69 -587.99,-405.62 -1884.02,-603.74 -2574.96,-386.48 -603.11,189.62 -2144.47,206.52 -2518.08,2124.62 -299.01,1535.28 -80.32,3077.27 1344.5,3702.65 149.19,65.47 104.38,38.82 272.26,106.35 1109.8,446.67 2952.5,487.1 3827.96,-411.62 715.99,-735.13 348.02,-554.18 778.6,-1573.83z"/>
  </g>
 </g>
</svg>
